<svg id="Capa_1" enable-background="new 0 0 512 512" height="512" viewBox="0 0 512 512" width="512" xmlns="http://www.w3.org/2000/svg"><g><path d="m332.431 321.335c1.89 0 3.78-.721 5.222-2.163 2.885-2.884 2.885-7.56.001-10.444l-10.593-10.594c-2.884-2.884-7.56-2.885-10.444 0-2.885 2.884-2.885 7.56-.001 10.444l10.593 10.594c1.442 1.442 3.332 2.163 5.222 2.163z"/><circle cx="57.567" cy="176.019" r="8.895"/><path d="m508.113 164.993-64.95-64.95c-2.884-2.884-7.559-2.884-10.445 0-2.884 2.884-2.884 7.56 0 10.444l63.905 63.905-41.105 41.105-101.973-101.975 41.104-41.105 13.583 13.583c2.883 2.885 7.559 2.884 10.444 0 2.884-2.884 2.884-7.56-.001-10.444l-14.626-14.626c-2.511-2.511-5.849-3.894-9.4-3.894-3.55 0-6.889 1.382-9.401 3.894l-43.191 43.192c-2.512 2.511-3.896 5.849-3.896 9.401 0 1.581.289 3.115.815 4.558l-17.161 17.161c-2.504 2.504-5.957 3.818-9.503 3.579l-90.426-5.887c-9.479-.613-18.407 3.511-24.081 10.778-3.04-1.805-5.842-3.982-8.371-6.512l-16.415-16.415c1.706-4.704.691-10.182-3.074-13.948l-43.194-43.194c-2.511-2.511-5.85-3.893-9.4-3.893-3.551 0-6.889 1.383-9.4 3.894l-104.064 104.062c-5.182 5.183-5.182 13.616 0 18.799l43.194 43.193c2.511 2.511 5.849 3.894 9.4 3.894 3.55 0 6.889-1.382 9.401-3.894l97.582-97.582 15.526 15.526c3.535 3.535 7.47 6.55 11.744 9.033l-4.949 10.029c-.798 1.617-1.826 3.107-3.056 4.428l-26.622 28.582c-3.356 3.603-4.782 8.636-3.815 13.465.966 4.828 4.223 8.925 8.708 10.957l11.267 5.107c4.587 1.708 9.472 2.43 14.206 2.456 9.796 0 19.402-3.379 27.225-9.835l21.671-17.885c.589-.485 1.381-.671 2.122-.501l64.138 14.826c.657.152 1.316.289 1.975.42l1.009 3.662c1.256 4.55 3.682 8.719 7.019 12.056l98.832 98.832c2.879 2.88 2.879 7.565 0 10.444l-13.689 13.689c-1.394 1.395-3.249 2.163-5.222 2.163s-3.827-.768-5.222-2.163l-11.041-11.042c-.002-.002-.004-.004-.006-.006l-11.581-11.58c-2.885-2.885-7.56-2.884-10.445 0-2.884 2.884-2.884 7.56.001 10.444l14.794 14.794c2.88 2.88 2.88 7.565 0 10.445l-13.689 13.689c-1.394 1.395-3.249 2.163-5.222 2.163s-3.827-.768-5.222-2.163l-51.439-51.439c-2.343-2.344-5.869-2.783-8.657-1.318-.643.338-1.247.777-1.788 1.318-2.884 2.884-2.884 7.56 0 10.444l43.446 43.446c2.876 2.88 2.875 7.562-.004 10.441l-13.688 13.688c-2.88 2.878-7.565 2.881-10.445 0l-43.442-43.442c-2.885-2.884-7.56-2.884-10.445 0-.264.264-.495.547-.711.838l-4.821-4.82h.001c-2.396-2.396-5.254-4.152-8.362-5.235.8-2.308 1.24-4.75 1.24-7.265 0-5.918-2.305-11.482-6.49-15.667l-13.689-13.688h.001c-4.185-4.185-9.749-6.49-15.667-6.49-2.519 0-4.966.442-7.278 1.244-1.062-3.055-2.786-5.93-5.222-8.366l-13.689-13.688c-7.49-7.489-19.048-8.473-27.621-2.976-1.072-2.407-2.57-4.668-4.541-6.639l-13.689-13.689h-.001c-4.019-4.019-9.314-6.281-14.969-6.455-.388-.408-19.813-19.862-19.813-19.862-2.884-2.884-7.559-2.884-10.445 0-2.884 2.884-2.884 7.56 0 10.444l14.933 14.933c-.349.309-.705.609-1.037.941l-11.508 11.506c-10.258 10.259-10.259 26.952.001 37.213l7.809 7.808c4.97 4.971 11.577 7.707 18.607 7.707.156 0 .311-.009.466-.011-.003.156-.011.31-.011.466 0 7.029 2.737 13.636 7.707 18.606l7.81 7.81c5.129 5.129 11.868 7.694 18.606 7.694.017 0 .034-.001.051-.001-.122 6.63 2.334 13.299 7.382 18.347l9.266 9.266c4.775 4.775 11.124 7.406 17.878 7.406.153 0 .304-.008.456-.011 0 .013-.001.026-.001.039 0 7.029 2.737 13.636 7.707 18.606l7.809 7.809c4.971 4.97 11.578 7.707 18.607 7.707 6.755 0 13.116-2.534 18.013-7.142l16.802 16.802c4.185 4.185 9.749 6.49 15.667 6.49s11.482-2.305 15.667-6.49l13.688-13.688c2.4-2.4 4.157-5.262 5.24-8.375 2.349.811 4.801 1.242 7.26 1.242 5.675 0 11.348-2.159 15.668-6.479l13.689-13.689c2.327-2.327 4.005-5.053 5.078-7.955 2.559 1.01 5.306 1.553 8.14 1.553 5.918 0 11.482-2.305 15.667-6.49l13.689-13.689c2.352-2.352 4.04-5.112 5.111-8.049 2.504.961 5.182 1.483 7.944 1.483 5.918 0 11.482-2.305 15.667-6.49l13.689-13.689c8.637-8.638 8.637-22.695 0-31.333l-23.756-23.756 13.936-24.856c2.318-4.131 5.19-7.924 8.538-11.272l32.517-32.517c1.105.288 2.238.446 3.374.446 3.404 0 6.808-1.296 9.4-3.887l43.194-43.194c5.184-5.183 5.184-13.616.001-18.799zm-451.633 53.217-41.104-41.105 101.975-101.975 41.104 41.105zm54.018 102.101c-3.083 0-5.981-1.2-8.162-3.381l-7.809-7.808c-4.5-4.501-4.5-11.824-.001-16.324l11.508-11.506c1.394-1.395 3.248-2.163 5.222-2.163 1.972 0 3.827.768 5.222 2.163l13.689 13.689c2.879 2.879 2.88 7.562.002 10.442l-11.508 11.508c-2.181 2.18-5.08 3.38-8.163 3.38zm26.416 31.198-7.81-7.81c-2.18-2.18-3.38-5.078-3.38-8.161s1.2-5.981 3.381-8.162l22.778-22.779c2.881-2.88 7.565-2.88 10.446 0l13.688 13.688c2.879 2.879 2.88 7.563.002 10.442l-22.796 22.795c-4.502 4.486-11.814 4.482-16.309-.013zm50.174 35.305c-3.914 4.079-10.954 4.079-14.868 0l-9.266-9.266c-4.098-4.099-4.098-10.768 0-14.867l30.787-30.786c2.748-2.865 7.695-2.865 10.443 0h.001l13.689 13.689c1.394 1.395 2.163 3.249 2.163 5.222 0 1.972-.768 3.827-2.164 5.222zm27.143 37.231c-3.083 0-5.981-1.201-8.161-3.381l-7.81-7.81c-2.18-2.18-3.38-5.078-3.38-8.161 0-3.081 1.198-5.977 3.377-8.157l22.785-22.785c2.748-2.865 7.695-2.865 10.443 0h.001l13.688 13.688c2.88 2.88 2.88 7.565 0 10.445l-22.78 22.78c-2.182 2.18-5.08 3.381-8.163 3.381zm69.392.297-13.689 13.689c-1.394 1.395-3.249 2.163-5.222 2.163-1.972 0-3.827-.768-5.222-2.163l-16.788-16.788 12.915-12.914c4.397-4.397 6.543-10.198 6.463-15.973l21.549 21.549c1.391 1.394 2.157 3.246 2.157 5.216.001 1.971-.767 3.826-2.163 5.221zm125.56-171.842c-4.304 4.305-7.997 9.18-10.976 14.491l-11.904 21.23-64.225-64.225c-1.181-1.181-2.107-2.592-2.737-4.132 6.277-.322 12.503-1.563 18.494-3.728 3.836-1.386 5.822-5.62 4.436-9.456s-5.62-5.822-9.456-4.436c-8.952 3.235-18.588 3.81-27.86 1.668l-64.139-14.826c-5.187-1.198-10.741.11-14.85 3.499l-21.672 17.886c-7.386 6.097-17.195 8.008-26.317 5.143l-10.883-4.932c-.288.002-.449-.793-.181-.902l.468-.503 26.154-28.08c2.212-2.374 4.06-5.053 5.494-7.961l8.917-18.071c2.422-4.909 7.529-7.855 12.979-7.495l90.426 5.887c7.779.502 15.397-2.364 20.908-7.874l16.279-16.279 91.869 91.868z"/></g></svg>